<?xml version="1.0" encoding="UTF-8"?>
<!DOCTYPE svg PUBLIC "-//W3C//DTD SVG 1.1//EN" "http://www.w3.org/Graphics/SVG/1.1/DTD/svg11.dtd">
<svg xmlns="http://www.w3.org/2000/svg" version="1.1" width="712px" height="718px" style="shape-rendering:geometricPrecision; text-rendering:geometricPrecision; image-rendering:optimizeQuality; fill-rule:evenodd; clip-rule:evenodd" xmlns:xlink="http://www.w3.org/1999/xlink">
<g><path style="opacity:1" fill="#ef7041" d="M 132.5,29.5 C 277.167,29.3333 421.834,29.5 566.5,30C 624.282,37.7988 662.448,69.2988 681,124.5C 682.872,131.396 684.205,138.396 685,145.5C 685.667,292.833 685.667,440.167 685,587.5C 677.001,638.159 649.501,673.659 602.5,694C 591.527,698.195 580.193,700.861 568.5,702C 422.167,702.667 275.833,702.667 129.5,702C 70.0635,692.87 32.2302,659.37 16,601.5C 14.4574,594.578 13.4574,587.578 13,580.5C 12.0156,434.149 12.3489,287.815 14,141.5C 27.487,76.5101 66.987,39.1767 132.5,29.5 Z"/></g>
<g><path style="opacity:1" fill="#223127" d="M 423.5,384.5 C 423.334,392.507 423.5,400.507 424,408.5C 426.333,411.167 428.667,411.167 431,408.5C 431.5,400.507 431.666,392.507 431.5,384.5C 444.504,384.333 457.504,384.5 470.5,385C 474.641,386.474 477.474,389.307 479,393.5C 479.667,439.5 479.667,485.5 479,531.5C 477.533,534.266 475.7,536.766 473.5,539C 440.672,557.606 405.339,567.94 367.5,570C 325.392,575.058 287.725,564.725 254.5,539C 225.69,512.206 210.19,479.039 208,439.5C 207.333,386.5 207.333,333.5 208,280.5C 214.773,218.74 247.606,178.24 306.5,159C 361.586,145.085 411.919,154.752 457.5,188C 470.016,198.84 479.849,211.674 487,226.5C 490.401,237.425 486.568,244.259 475.5,247C 470.563,248.369 466.396,247.203 463,243.5C 455.804,226.644 444.637,213.144 429.5,203C 389.101,178.946 346.768,174.946 302.5,191C 264.027,208.087 242.193,237.587 237,279.5C 236.333,332.167 236.333,384.833 237,437.5C 239.775,486.94 264.275,520.106 310.5,537C 355.073,545.789 398.407,541.456 440.5,524C 443.912,522.545 447.079,520.712 450,518.5C 450.5,483.168 450.667,447.835 450.5,412.5C 418.498,412.667 386.498,412.5 354.5,412C 350.667,410.833 348.167,408.333 347,404.5C 345.909,398.903 346.576,393.57 349,388.5C 350.579,386.959 352.413,385.792 354.5,385C 377.498,384.5 400.498,384.333 423.5,384.5 Z"/></g>
<g><path style="opacity:1" fill="#f0cc66" d="M 355.5,307.5 C 357.722,307.178 359.556,307.845 361,309.5C 361.333,324.5 361.667,339.5 362,354.5C 365.792,369.75 374.959,373.917 389.5,367C 392.473,365.235 394.64,362.735 396,359.5C 397.29,342.9 397.957,326.233 398,309.5C 400.333,306.833 402.667,306.833 405,309.5C 405.667,331.5 405.667,353.5 405,375.5C 402.368,378.192 400.034,377.859 398,374.5C 397.667,372.833 397.333,371.167 397,369.5C 383.98,380.465 371.313,380.132 359,368.5C 357.392,365.618 356.059,362.618 355,359.5C 354.182,342.093 354.348,324.76 355.5,307.5 Z"/></g>
<g><path style="opacity:1" fill="#eecb66" d="M 431.5,384.5 C 431.666,392.507 431.5,400.507 431,408.5C 428.667,411.167 426.333,411.167 424,408.5C 423.5,400.507 423.334,392.507 423.5,384.5C 423.333,359.498 423.5,334.498 424,309.5C 426.333,306.833 428.667,306.833 431,309.5C 431.333,311.833 431.667,314.167 432,316.5C 439.335,308.057 448.502,305.223 459.5,308C 474.918,313.631 482.252,324.797 481.5,341.5C 481.326,367.854 468.326,379.354 442.5,376C 438.722,373.888 435.222,371.388 432,368.5C 431.501,373.823 431.334,379.156 431.5,384.5 Z"/></g>
<g><path style="opacity:1" fill="#f07041" d="M 444.5,315.5 C 459.909,312.602 469.409,318.602 473,333.5C 474.102,341.679 473.435,349.679 471,357.5C 465.633,367.076 457.466,370.91 446.5,369C 439.333,367.167 434.833,362.667 433,355.5C 431.036,346.491 431.036,337.491 433,328.5C 434.617,322.058 438.45,317.725 444.5,315.5 Z"/></g>
</svg>
